<svg width="24" height="24" viewBox="0 0 24 24" fill="none" xmlns="http://www.w3.org/2000/svg">
<path fill-rule="evenodd" clip-rule="evenodd" d="M2 12C2 10.3431 3.34315 9 5 9H8C9.65685 9 11 10.3431 11 12V19C11 20.6569 9.65685 22 8 22H5C3.34315 22 2 20.6569 2 19V12ZM5 11C4.44772 11 4 11.4477 4 12V19C4 19.5523 4.44772 20 5 20H8C8.55228 20 9 19.5523 9 19V12C9 11.4477 8.55228 11 8 11H5Z" fill="#121D33"/>
<path fill-rule="evenodd" clip-rule="evenodd" d="M13 5C13 3.34315 14.3431 2 16 2H19C20.6569 2 22 3.34315 22 5V19C22 20.6569 20.6569 22 19 22H16C14.3431 22 13 20.6569 13 19V5ZM16 4C15.4477 4 15 4.44772 15 5V19C15 19.5523 15.4477 20 16 20H19C19.5523 20 20 19.5523 20 19V5C20 4.44772 19.5523 4 19 4H16Z" fill="#121D33"/>
</svg>
