<svg width="20" height="20" viewBox="0 0 20 20" fill="none" xmlns="http://www.w3.org/2000/svg">
<path d="M11.3332 2.00001C11.3332 1.26363 10.7362 0.666672 9.99984 0.666672C9.26346 0.666672 8.6665 1.26363 8.6665 2.00001V8.66667H1.99984C1.26346 8.66667 0.666504 9.26363 0.666504 10C0.666504 10.7364 1.26346 11.3333 1.99984 11.3333H8.6665V18C8.6665 18.7364 9.26346 19.3333 9.99984 19.3333C10.7362 19.3333 11.3332 18.7364 11.3332 18V11.3333H17.9998C18.7362 11.3333 19.3332 10.7364 19.3332 10C19.3332 9.26363 18.7362 8.66667 17.9998 8.66667H11.3332V2.00001Z" fill="#121D33"/>
</svg>
