<svg width="24" height="25" viewBox="0 0 24 25" fill="none" xmlns="http://www.w3.org/2000/svg">
<path fill-rule="evenodd" clip-rule="evenodd" d="M12 24.5C18.6274 24.5 24 19.1274 24 12.5C24 5.87258 18.6274 0.5 12 0.5C5.37258 0.5 0 5.87258 0 12.5C0 19.1274 5.37258 24.5 12 24.5ZM15.3333 9.83334H16C16.7333 9.83334 17.3333 10.4333 17.3333 11.1667V17.8333C17.3333 18.5667 16.7333 19.1667 16 19.1667H8.00001C7.26668 19.1667 6.66668 18.5667 6.66668 17.8333V11.1667C6.66668 10.4333 7.26668 9.83334 8.00001 9.83334H8.66668V8.5C8.66668 6.66 10.16 5.16667 12 5.16667C13.84 5.16667 15.3333 6.66 15.3333 8.5V9.83334ZM10.6667 14.5C10.6667 15.2333 11.2667 15.8333 12 15.8333C12.7333 15.8333 13.3333 15.2333 13.3333 14.5C13.3333 13.7667 12.7333 13.1667 12 13.1667C11.2667 13.1667 10.6667 13.7667 10.6667 14.5ZM9.93335 9.83334H14.0667V8.5C14.0667 7.36 13.14 6.43334 12 6.43334C10.86 6.43334 9.93335 7.36 9.93335 8.5V9.83334Z" fill="#98A1B2"/>
</svg>
