<svg width="20" height="22" viewBox="0 0 20 22" fill="none" xmlns="http://www.w3.org/2000/svg">
<path d="M1.08706 4.61561C0.817977 4.86784 0.665391 5.22026 0.665579 5.58907C0.665767 5.95789 0.818713 6.31015 1.08805 6.5621L5.2685 10.4727C5.80626 10.9758 6.65001 10.9476 7.15307 10.4099C7.65612 9.8721 7.62798 9.02835 7.09022 8.5253L5.376 6.92173L15.3328 6.92173C16.0692 6.92173 16.6661 7.51868 16.6661 8.25506V9.68666C16.6661 10.423 17.2631 11.02 17.9995 11.02C18.7358 11.02 19.3328 10.423 19.3328 9.68666V8.25506C19.3328 6.04592 17.5419 4.25506 15.3328 4.25506L5.37096 4.25506L7.09122 2.64254C7.62847 2.13894 7.65574 1.29516 7.15214 0.757909C6.64854 0.220658 5.80476 0.193381 5.26751 0.696984L1.08706 4.61561Z" fill="#121D33"/>
<path d="M18.9108 17.3844C19.1798 17.1322 19.3324 16.7798 19.3322 16.4109C19.3321 16.0421 19.1791 15.6899 18.9098 15.4379L14.7293 11.5273C14.1916 11.0243 13.3478 11.0524 12.8448 11.5902C12.3417 12.1279 12.3698 12.9717 12.9076 13.4747L14.6218 15.0783H4.66504C3.92866 15.0783 3.33171 14.4813 3.33171 13.745V12.3134C3.33171 11.577 2.73475 10.98 1.99837 10.98C1.26199 10.98 0.665039 11.577 0.665039 12.3134V13.745C0.665039 15.9541 2.4559 17.745 4.66504 17.745L14.6269 17.745L12.9066 19.3575C12.3694 19.8611 12.3421 20.7049 12.8457 21.2421C13.3493 21.7794 14.1931 21.8066 14.7303 21.303L18.9108 17.3844Z" fill="#121D33"/>
</svg>
