<svg width="16" height="16" viewBox="0 0 16 16" fill="none" xmlns="http://www.w3.org/2000/svg">
<path d="M15.6095 0.390524C16.1302 0.911223 16.1302 1.75544 15.6095 2.27614L2.27614 15.6095C1.75544 16.1302 0.911223 16.1302 0.390524 15.6095C-0.130175 15.0888 -0.130175 14.2446 0.390524 13.7239L13.7239 0.390524C14.2446 -0.130175 15.0888 -0.130175 15.6095 0.390524Z" fill="#121D33"/>
<path d="M16 13.3333C16 14.8061 14.8061 16 13.3333 16C11.8606 16 10.6667 14.8061 10.6667 13.3333C10.6667 11.8606 11.8606 10.6667 13.3333 10.6667C14.8061 10.6667 16 11.8606 16 13.3333Z" fill="#121D33"/>
<path d="M2.66667 5.33333C4.13943 5.33333 5.33333 4.13943 5.33333 2.66667C5.33333 1.19391 4.13943 1.98682e-08 2.66667 1.98682e-08C1.19391 1.98682e-08 1.98682e-08 1.19391 1.98682e-08 2.66667C1.98682e-08 4.13943 1.19391 5.33333 2.66667 5.33333Z" fill="#121D33"/>
</svg>
