<svg width="24" height="24" viewBox="0 0 24 24" fill="none" xmlns="http://www.w3.org/2000/svg">
<path fill-rule="evenodd" clip-rule="evenodd" d="M12.614 4.24437C12.2529 3.96351 11.7472 3.96351 11.3861 4.24437L4.38608 9.68881C4.14085 9.87955 4.00002 10.1678 4.00002 10.4743L4 19.0031C4 19.5534 4.44566 20 5 20H8.00003V15C8.00003 13.3431 9.34317 12 11 12H13C14.6569 12 16 13.3431 16 15V20H19C19.552 20 20 19.5521 20 18.9996V10.4791C20 10.17 19.8572 9.87796 19.614 9.68882L12.614 4.24437ZM14 20V15C14 14.4477 13.5523 14 13 14H11C10.4477 14 10 14.4477 10 15V20H14ZM5 22C3.3452 22 1.99999 20.662 2 19.0031L2.00002 10.4743C2.00002 9.5465 2.42909 8.6772 3.1582 8.11011L10.1582 2.66566C11.2415 1.82307 12.7585 1.82308 13.8418 2.66567L20.8418 8.11011C21.573 8.67879 22 9.55382 22 10.4791V18.9996C22 20.6561 20.6572 22 19 22H5Z" fill="#121D33"/>
<path d="M11.3861 4.24437C11.7472 3.96351 12.2529 3.96351 12.614 4.24437L19.614 9.68882C19.8572 9.87796 20 10.17 20 10.4791V18.9996C20 19.5521 19.552 20 19 20H16V15C16 13.3431 14.6569 12 13 12H11C9.34317 12 8.00003 13.3431 8.00003 15V20H5C4.44566 20 4 19.5534 4 19.0031L4.00002 10.4743C4.00002 10.1678 4.14085 9.87955 4.38608 9.68881L11.3861 4.24437Z" fill="#121D33"/>
</svg>
