<svg width="24" height="24" viewBox="0 0 24 24" fill="none" xmlns="http://www.w3.org/2000/svg">
<path fill-rule="evenodd" clip-rule="evenodd" d="M5 4C3.34315 4 2 5.34315 2 7V17C2 18.6569 3.34315 20 5 20H19C20.6569 20 22 18.6569 22 17V7C22 5.34315 20.6569 4 19 4H5ZM4 7C4 6.44772 4.44772 6 5 6H19C19.5523 6 20 6.44772 20 7V8H4V7ZM4 10H20V17C20 17.5523 19.5523 18 19 18H5C4.44772 18 4 17.5523 4 17V10ZM7 13C6.44772 13 6 13.4477 6 14V15C6 15.5523 6.44772 16 7 16H9C9.55228 16 10 15.5523 10 15V14C10 13.4477 9.55228 13 9 13H7Z" fill="#121D33"/>
</svg>
