<svg width="14" height="20" viewBox="0 0 14 20" fill="none" xmlns="http://www.w3.org/2000/svg">
<path d="M7.8849 1.00377C7.37807 0.549505 6.61045 0.549896 6.10408 1.00467L0.777215 5.78877C0.229354 6.28081 0.184101 7.12382 0.67614 7.67168C1.16818 8.21954 2.01119 8.2648 2.55905 7.77276L5.66166 4.98627L5.66166 14.5861C5.66166 15.3225 6.25861 15.9195 6.99499 15.9195C7.73137 15.9195 8.32832 15.3225 8.32832 14.5861L8.32833 4.98219L11.4429 7.77367C11.9912 8.26515 12.8342 8.21904 13.3257 7.67068C13.8171 7.12232 13.771 6.27936 13.2227 5.78787L7.8849 1.00377Z" fill="#121D33"/>
<path d="M1.66683 16.67C0.93045 16.67 0.333496 17.2669 0.333496 18.0033C0.333496 18.7397 0.93045 19.3366 1.66683 19.3366H12.3335C13.0699 19.3366 13.6668 18.7397 13.6668 18.0033C13.6668 17.2669 13.0699 16.67 12.3335 16.67H1.66683Z" fill="#121D33"/>
</svg>
