<svg width="24" height="24" viewBox="0 0 24 24" fill="none" xmlns="http://www.w3.org/2000/svg">
<path d="M12.6636 5.25283C12.2834 4.91213 11.7077 4.91242 11.3279 5.2535L7.33279 8.84158C6.92189 9.21061 6.88795 9.84286 7.25698 10.2538C7.62601 10.6647 8.25827 10.6986 8.66916 10.3296L10.9961 8.2397L10.9961 15.4396C10.9961 15.9919 11.4438 16.4396 11.9961 16.4396C12.5484 16.4396 12.9961 15.9919 12.9961 15.4396L12.9961 8.23664L15.332 10.3303C15.7433 10.6989 16.3755 10.6643 16.7441 10.253C17.1127 9.84174 17.0782 9.20952 16.6669 8.84091L12.6636 5.25283Z" fill="#121D33"/>
<path d="M8 17.0025C7.44772 17.0025 7 17.4502 7 18.0025C7 18.5548 7.44772 19.0025 8 19.0025H16C16.5523 19.0025 17 18.5548 17 18.0025C17 17.4502 16.5523 17.0025 16 17.0025H8Z" fill="#121D33"/>
</svg>
