<svg width="24" height="24" viewBox="0 0 24 24" fill="none" xmlns="http://www.w3.org/2000/svg">
<path d="M12.3812 4.10274C12.1404 3.9634 11.8458 3.96595 11.6073 4.10943C11.3688 4.25292 11.2222 4.51579 11.2222 4.8V19.2C11.2222 19.6418 11.5704 20 11.9999 20C12.4295 20 12.7777 19.6418 12.7777 19.2V13.6H14.3332C14.7628 13.6 15.111 13.2418 15.111 12.8C15.111 12.3582 14.7628 12 14.3332 12H12.7777V6.16788L15.8888 7.96788V16.8C15.8888 17.2418 16.237 17.6 16.6666 17.6C17.0961 17.6 17.4443 17.2418 17.4443 16.8V8.86788L17.8408 9.09726C18.2152 9.31387 18.6894 9.1773 18.9 8.79221C19.1106 8.40712 18.9778 7.91935 18.6034 7.70274L12.3812 4.10274Z" fill="#121D33"/>
<path d="M8.88885 5.6C9.3184 5.6 9.66662 5.95817 9.66662 6.4V17.6C9.66662 17.9924 9.38997 18.3268 9.01344 18.3897C8.6369 18.4525 8.27162 18.2252 8.15099 17.853L6.55554 12.9298V16C6.55554 16.4418 6.20732 16.8 5.77777 16.8C5.34822 16.8 5 16.4418 5 16V8C5 7.60764 5.27665 7.27318 5.65319 7.21033C6.02972 7.14748 6.395 7.37479 6.51563 7.74702L8.11108 12.6702V6.4C8.11108 5.95817 8.4593 5.6 8.88885 5.6Z" fill="#121D33"/>
</svg>
