<svg width="24" height="24" viewBox="0 0 24 24" fill="none" xmlns="http://www.w3.org/2000/svg">
<path fill-rule="evenodd" clip-rule="evenodd" d="M6 4C3.79086 4 2 5.79086 2 8C2 10.2091 3.79086 12 6 12C8.20914 12 10 10.2091 10 8C10 5.79086 8.20914 4 6 4ZM18 12C15.7909 12 14 13.7909 14 16C14 18.2091 15.7909 20 18 20C20.2091 20 22 18.2091 22 16C22 13.7909 20.2091 12 18 12ZM11 8C11 7.44772 11.4477 7 12 7H20C20.5523 7 21 7.44772 21 8C21 8.55228 20.5523 9 20 9H12C11.4477 9 11 8.55228 11 8ZM4 15C3.44772 15 3 15.4477 3 16C3 16.5523 3.44772 17 4 17H12C12.5523 17 13 16.5523 13 16C13 15.4477 12.5523 15 12 15H4Z" fill="#121D33"/>
</svg>
