<svg width="14" height="20" viewBox="0 0 14 20" fill="none" xmlns="http://www.w3.org/2000/svg">
<path d="M6.11571 15.5767C6.62245 16.0306 7.38968 16.0302 7.89597 15.5758L13.2228 10.7944C13.7708 10.3025 13.8163 9.45951 13.3244 8.9115C12.8326 8.3635 11.9896 8.31801 11.4416 8.8099L8.33867 11.5951V2.00121C8.33867 1.26483 7.74171 0.667877 7.00533 0.667877C6.26895 0.667877 5.672 1.26483 5.672 2.00121L5.672 11.5991L2.55718 8.80899C2.00868 8.31766 1.16573 8.36401 0.674406 8.91251C0.183079 9.46101 0.229428 10.304 0.777928 10.7953L6.11571 15.5767Z" fill="#121D33"/>
<path d="M1.66683 16.6654C0.93045 16.6654 0.333496 17.2624 0.333496 17.9987C0.333496 18.7351 0.93045 19.3321 1.66683 19.3321H12.3335C13.0699 19.3321 13.6668 18.7351 13.6668 17.9987C13.6668 17.2624 13.0699 16.6654 12.3335 16.6654H1.66683Z" fill="#121D33"/>
</svg>
