<svg width="24" height="24" viewBox="0 0 24 24" fill="none" xmlns="http://www.w3.org/2000/svg">
<path fill-rule="evenodd" clip-rule="evenodd" d="M12.866 2.2292C12.3301 1.9236 11.6699 1.9236 11.134 2.2292L3.86603 6.37381C3.33013 6.67941 3 7.24419 3 7.85539V16.1446C3 16.7558 3.33013 17.3206 3.86603 17.6262L11.134 21.7708C11.6699 22.0764 12.3301 22.0764 12.866 21.7708L20.134 17.6262C20.6699 17.3206 21 16.7558 21 16.1446V7.85539C21 7.24419 20.6699 6.67941 20.134 6.37381L12.866 2.2292ZM11.6073 4.10943C11.8458 3.96595 12.1404 3.9634 12.3812 4.10274L18.6034 7.70274C18.9778 7.91935 19.1106 8.40712 18.9 8.79221C18.6894 9.1773 18.2152 9.31387 17.8408 9.09726L17.4443 8.86788V16.8C17.4443 17.2418 17.0961 17.6 16.6666 17.6C16.237 17.6 15.8888 17.2418 15.8888 16.8V7.96788L12.7777 6.16788V12H14.3332C14.7628 12 15.111 12.3582 15.111 12.8C15.111 13.2418 14.7628 13.6 14.3332 13.6H12.7777V19.2C12.7777 19.6418 12.4295 20 11.9999 20C11.5704 20 11.2222 19.6418 11.2222 19.2V4.8C11.2222 4.51579 11.3688 4.25292 11.6073 4.10943ZM9.66662 6.4C9.66662 5.95817 9.3184 5.6 8.88885 5.6C8.4593 5.6 8.11108 5.95817 8.11108 6.4V12.6702L6.51563 7.74702C6.395 7.37479 6.02972 7.14748 5.65319 7.21033C5.27665 7.27318 5 7.60764 5 8V16C5 16.4418 5.34822 16.8 5.77777 16.8C6.20732 16.8 6.55554 16.4418 6.55554 16V12.9298L8.15099 17.853C8.27162 18.2252 8.6369 18.4525 9.01344 18.3897C9.38997 18.3268 9.66662 17.9924 9.66662 17.6V6.4Z" fill="#98A1B2"/>
</svg>
